<?xml version="1.0" encoding="iso-8859-1"?>
<!-- Generator: Adobe Illustrator 16.0.0, SVG Export Plug-In . SVG Version: 6.00 Build 0)  -->
<!DOCTYPE svg PUBLIC "-//W3C//DTD SVG 1.1//EN" "http://www.w3.org/Graphics/SVG/1.1/DTD/svg11.dtd">
<svg version="1.1" id="Layer_1" xmlns="http://www.w3.org/2000/svg" xmlns:xlink="http://www.w3.org/1999/xlink" x="0px" y="0px"
	 width="103.788px" height="134.062px" viewBox="0 0 103.788 134.062" style="enable-background:new 0 0 103.788 134.062;"
	 xml:space="preserve">
<g>
	<g>
		<g>
			<path style="fill:#888888;" d="M0.002,130.415h2.784l1.393-17.002H1.328v-3.28h7.655l5.237,13.291
				c0.397,1.159,0.563,1.955,0.563,1.955h0.065c0,0,0.166-0.796,0.597-1.955l5.203-13.291h7.656v3.28h-2.817l1.359,17.002h2.784
				v3.248h-9.645v-3.248h2.618l-0.862-11.862c-0.065-0.83,0.1-2.188,0.1-2.188h-0.1c0,0-0.265,1.291-0.563,2.088l-4.507,10.836
				h-3.712l-4.508-10.836c-0.298-0.797-0.53-2.088-0.53-2.088H7.789c0,0,0.165,1.356,0.1,2.188l-0.862,11.862h2.651v3.248H0v-3.248
				H0.002z"/>
			<path style="fill:#888888;" d="M43.456,109.736c6.961,0,12.197,5.27,12.197,11.998c0,6.926-5.236,12.328-12.197,12.328
				c-6.959,0-12.196-5.402-12.196-12.328C31.26,115.006,36.497,109.736,43.456,109.736z M43.456,130.249
				c4.242,0,7.723-3.678,7.723-8.516c0-4.642-3.48-8.188-7.723-8.188s-7.723,3.547-7.723,8.188
				C35.733,126.572,39.214,130.249,43.456,130.249z"/>
			<path style="fill:#888888;" d="M57.81,130.415h2.817v-17.002H57.81v-3.28h10.175c1.889,0,3.381,0.1,4.904,0.563
				c4.574,1.358,7.623,5.401,7.623,11.201c0,5.567-2.816,9.577-7.291,11.069c-1.592,0.562-3.248,0.695-5.203,0.695H57.81V130.415z
				 M67.819,130.186c1.49,0,2.684-0.133,3.844-0.598c2.687-1.095,4.375-3.845,4.375-7.689c0-3.977-1.789-6.693-4.541-7.754
				c-1.19-0.465-2.285-0.531-3.678-0.531h-2.85v16.572H67.819z"/>
			<path style="fill:#888888;" d="M83.008,130.415h2.089l5.932-8.682l-5.766-8.32h-2.089v-3.28h8.882v3.28h-2.318l3.246,4.873
				c0.433,0.529,0.664,0.994,0.664,0.994h0.065c0,0.033,0.232-0.433,0.63-0.994l3.147-4.873h-2.254v-3.28h8.551v3.28h-2.055
				l-5.965,8.65l5.865,8.352h2.088v3.248h-8.914v-3.248h2.32l-3.281-4.938c-0.432-0.562-0.664-1.026-0.664-1.026h-0.066
				c-0.066,0-0.264,0.465-0.629,1.026l-3.148,4.938h2.287v3.248h-8.617V130.415z"/>
		</g>
	</g>
	<g>
		
			<linearGradient id="SVGID_1_" gradientUnits="userSpaceOnUse" x1="93.3999" y1="107.7148" x2="57.8847" y2="130.841" gradientTransform="matrix(1 0 0 -1 0 135.0625)">
			<stop  offset="0" style="stop-color:#AAAAAA;stop-opacity:0.9"/>
			<stop  offset="1" style="stop-color:#777777;stop-opacity:0.7"/>
		</linearGradient>
		<polygon style="fill:url(#SVGID_1_);" points="81.608,41.431 101.515,9.582 53.631,9.582 47.017,20.196 		"/>
		<polygon style="opacity:0.15;enable-background:new    ;" points="47.02,20.196 50.409,14.748 81.612,41.431 		"/>
		
			<linearGradient id="SVGID_2_" gradientUnits="userSpaceOnUse" x1="99.6294" y1="54.3105" x2="73.0821" y2="71.8419" gradientTransform="matrix(1 0 0 -1 0 135.0625)">
			<stop  offset="0" style="stop-color:#AAAAAA;stop-opacity:0.9"/>
			<stop  offset="0.2611" style="stop-color:#A5A5A5;stop-opacity:0.8478"/>
			<stop  offset="0.5775" style="stop-color:#969696;stop-opacity:0.7845"/>
			<stop  offset="0.9214" style="stop-color:#7E7E7E;stop-opacity:0.7157"/>
			<stop  offset="1" style="stop-color:#777777;stop-opacity:0.7"/>
		</linearGradient>
		<polygon style="fill:url(#SVGID_2_);" points="92.138,99.176 92.138,51.294 81.808,44.838 60.086,79.148 		"/>
		<polygon style="opacity:0.15;enable-background:new    ;" points="60.086,79.146 65.452,82.495 81.808,44.838 		"/>
		
			<linearGradient id="SVGID_3_" gradientUnits="userSpaceOnUse" x1="12.1562" y1="91.7598" x2="62.9439" y2="123.4954" gradientTransform="matrix(1 0 0 -1 0 135.0625)">
			<stop  offset="0" style="stop-color:#777777;stop-opacity:0.7"/>
			<stop  offset="1" style="stop-color:#AAAAAA;stop-opacity:0.9"/>
		</linearGradient>
		<polygon style="fill:url(#SVGID_3_);" points="15.016,0 15.016,47.88 26.095,54.337 81.601,41.426 		"/>
		
			<linearGradient id="SVGID_4_" gradientUnits="userSpaceOnUse" x1="23.2446" y1="34.9609" x2="64.5271" y2="101.0267" gradientTransform="matrix(1 0 0 -1 0 135.0625)">
			<stop  offset="0" style="stop-color:#777777;stop-opacity:0.7"/>
			<stop  offset="1" style="stop-color:#AAAAAA;stop-opacity:0.9"/>
		</linearGradient>
		<polygon style="fill:url(#SVGID_4_);" points="25.864,57.988 5.957,89.299 53.838,89.299 81.815,44.838 		"/>
	</g>
</g>
<g>
</g>
<g>
</g>
<g>
</g>
<g>
</g>
<g>
</g>
<g>
</g>
<g>
</g>
<g>
</g>
<g>
</g>
<g>
</g>
<g>
</g>
<g>
</g>
<g>
</g>
<g>
</g>
<g>
</g>
</svg>
